<?xml version="1.0" encoding="utf-8"?>
<!-- Generator: Adobe Illustrator 19.0.0, SVG Export Plug-In . SVG Version: 6.00 Build 0)  -->
<svg version="1.1" id="Layer_1" xmlns="http://www.w3.org/2000/svg" xmlns:xlink="http://www.w3.org/1999/xlink" x="0px" y="0px"
	 viewBox="0 0 500 500" style="enable-background:new 0 0 500 500;" xml:space="preserve">
<style type="text/css">
	.st0{fill:#FFFFFF;}
	.st1{fill:#1D4E9E;}
	.st2{fill:#FBC707;}
</style>
<g id="XMLID_1_">
	<polygon id="XMLID_3_" class="st0" points="67.5,344.7 432.5,344.7 432.5,155.3 67.5,155.3 67.5,344.7 	"/>
	<path id="XMLID_4_" class="st1" d="M81.5,164c-2.9,0-5.2,2.2-5.2,5v118.3c0,2.7,2.3,5,5.2,5h129.6V164H81.5"/>
	<path id="XMLID_5_" class="st2" d="M418.5,164H215.7v128.3h202.7c2.9,0,5.2-2.2,5.2-5V169C423.7,166.2,421.3,164,418.5,164"/>
	<polyline id="XMLID_6_" class="st0" points="150.9,268.6 150.8,268.7 150.8,268.8 150.9,268.8 150.9,268.8 151,268.8 151,268.8 
		151,268.7 151,268.7 150.9,268.6 	"/>
	<polyline id="XMLID_7_" class="st1" points="238.7,179.3 255.5,179.3 255.5,262.6 290.6,262.6 290.6,276.9 238.7,276.9 
		238.7,179.3 	"/>
	<polygon id="XMLID_8_" class="st1" points="308.7,276.9 325.6,276.9 325.6,179.3 308.7,179.3 308.7,276.9 	"/>
	<path id="XMLID_9_" class="st1" d="M384,242.4l16.7,0c0,11.4-2.2,20.3-6.5,26.8c-4.3,6.5-9.4,9.8-20,9.8c-12.5,0-18.4-3.1-23.3-9.3
		c-4.8-6.2-7.2-16.5-7.2-30.8v-20.7c0-15.4,2.5-26.1,7.6-32c5.1-6,10.4-9,21.4-9c10.3,0,16.2,2.7,20.8,8c4.6,5.3,6.9,13.5,6.9,24.6
		l-17.2,0c0-6-0.6-10.5-1.9-13.4c-1.3-2.9-3.7-4.4-7.3-4.4c-8.9,0-13.4,6.8-13.4,20.3V244c0,7.3,1.1,12.5,3.4,15.6
		c2.3,3.1,5.7,4.6,10.1,4.6c3.3,0,5.8-1.6,7.4-4.9C383.2,256,384,250.4,384,242.4"/>
	<polyline id="XMLID_10_" class="st1" points="76.3,323.9 78.8,323.9 78.8,333.8 83.9,333.8 83.9,335.8 76.3,335.8 76.3,323.9 	"/>
	<rect id="XMLID_11_" x="86.1" y="323.9" class="st1" width="2.4" height="11.9"/>
	<polyline id="XMLID_12_" class="st1" points="91.6,323.9 99.2,323.9 99.2,325.9 94.1,325.9 94.1,329.1 97.1,329.1 97.1,331.1 
		94.1,331.1 94.1,335.8 91.6,335.8 91.6,323.9 	"/>
	<polyline id="XMLID_13_" class="st1" points="101.3,323.9 109.6,323.9 109.6,325.9 103.7,325.9 103.7,328.6 107.3,328.6 
		107.3,330.4 103.7,330.4 103.7,333.8 109.6,333.8 109.6,335.8 101.3,335.8 101.3,323.9 	"/>
	<rect id="XMLID_14_" x="117.2" y="323.9" class="st1" width="2.4" height="11.9"/>
	<polyline id="XMLID_15_" class="st1" points="122.7,323.9 125.3,323.9 130.4,331.9 130.4,323.9 132.8,323.9 132.8,335.8 
		130.4,335.8 125.2,327.5 125.2,335.8 122.7,335.8 122.7,323.9 	"/>
	<path id="XMLID_16_" class="st1" d="M137.2,332.5c0.4,0.6,0.8,1,1.2,1.3c0.4,0.2,0.9,0.4,1.4,0.4c0.6,0,1.2-0.2,1.5-0.5
		c0.4-0.3,0.5-0.7,0.5-1.1c0-0.4-0.1-0.7-0.4-1c-0.3-0.3-0.9-0.5-2-0.8c-1.4-0.3-2.4-0.8-3-1.3c-0.7-0.6-1.1-1.4-1.1-2.3
		c0-1,0.4-1.8,1.1-2.5c0.7-0.7,1.8-1,3-1c0.7,0,1.4,0.1,2,0.4c0.6,0.2,1.1,0.5,1.5,0.9c0.3,0.2,0.5,0.6,0.8,1l-2.1,0.8
		c-0.3-0.5-0.7-0.8-1.1-1c-0.4-0.2-0.8-0.3-1.2-0.3c-0.5,0-1,0.1-1.3,0.4c-0.3,0.3-0.5,0.6-0.5,1.1c0,0.3,0.1,0.6,0.4,0.9
		c0.3,0.2,0.9,0.5,2,0.7c1.1,0.3,1.9,0.5,2.4,0.9c0.5,0.3,1,0.8,1.2,1.3c0.3,0.5,0.4,1.1,0.4,1.7c0,0.6-0.2,1.2-0.5,1.8
		c-0.4,0.6-0.9,1.1-1.6,1.4c-0.7,0.3-1.5,0.5-2.4,0.5c-0.9,0-1.6-0.1-2.2-0.4c-0.6-0.3-1.2-0.6-1.6-1.1c-0.3-0.3-0.6-0.7-0.8-1.2
		L137.2,332.5"/>
	<path id="XMLID_17_" class="st1" d="M146.5,323.9h2.4v7.3c0,0.9,0.2,1.6,0.7,2c0.4,0.5,1,0.7,1.8,0.7c0.5,0,0.9-0.1,1.3-0.3
		s0.7-0.5,0.9-0.9c0.2-0.4,0.3-0.9,0.3-1.6v-7.3h2.5v7.6c0,1.5-0.4,2.6-1.2,3.4c-0.8,0.8-2,1.2-3.6,1.2c-0.9,0-1.8-0.1-2.6-0.4
		c-0.4-0.2-0.8-0.3-1.1-0.6c-0.4-0.3-0.7-0.8-1-1.3c-0.3-0.5-0.4-1.2-0.4-2.1V323.9"/>
	<path id="XMLID_20_" class="st1" d="M159.3,323.9h3.4c1.8,0,3,0.1,3.7,0.4c0.7,0.3,1.2,0.7,1.6,1.3c0.4,0.6,0.6,1.3,0.6,2.1
		c0,0.7-0.2,1.3-0.5,1.8c-0.3,0.5-0.9,0.9-1.8,1.2l2.2,5.2H166L164,331h-2.3v4.8h-2.4V323.9z M161.7,326v3.2h2
		c0.7,0,1.3-0.2,1.8-0.6c0.3-0.3,0.5-0.6,0.5-1.1c0-0.4-0.2-0.8-0.6-1.1c-0.4-0.3-1-0.4-1.8-0.4H161.7"/>
	<path id="XMLID_23_" class="st1" d="M173.7,323.9h2.6l4,11.9h-2.4L177,333h-4l-0.9,2.8h-2.4L173.7,323.9z M175,327.1l-1.4,4.2h2.8
		L175,327.1"/>
	<polyline id="XMLID_24_" class="st1" points="182.1,323.9 184.7,323.9 189.7,331.9 189.7,323.9 192.2,323.9 192.2,335.8 
		189.7,335.8 184.5,327.5 184.5,335.8 182.1,335.8 182.1,323.9 	"/>
	<path id="XMLID_25_" class="st1" d="M204.4,332.4c-0.2,0.7-0.4,1.2-0.7,1.6c-0.4,0.6-1,1.1-1.7,1.5c-0.7,0.4-1.5,0.5-2.4,0.5
		c-1,0-1.9-0.2-2.7-0.7c-0.9-0.5-1.5-1.1-2-2.1c-0.4-0.9-0.7-2-0.7-3.2c0-1.3,0.2-2.4,0.7-3.4c0.5-1,1.1-1.7,2-2.2
		c0.9-0.5,1.8-0.7,2.8-0.7c0.7,0,1.4,0.1,2.1,0.4c0.7,0.3,1.2,0.7,1.7,1.3c0.3,0.4,0.6,0.9,0.7,1.5l-2.3,0.6
		c-0.2-0.6-0.5-1.1-0.9-1.5c-0.4-0.3-0.9-0.5-1.5-0.5c-0.9,0-1.6,0.4-2,1.2c-0.5,0.8-0.7,1.8-0.7,3.1c0,0.8,0.1,1.5,0.3,2.1
		c0.2,0.6,0.5,1.1,0.9,1.4c0.4,0.3,0.8,0.4,1.3,0.4c0.7,0,1.3-0.2,1.8-0.7c0.4-0.3,0.7-0.8,0.9-1.4L204.4,332.4"/>
	<polyline id="XMLID_26_" class="st1" points="206.5,323.9 214.8,323.9 214.8,325.9 208.9,325.9 208.9,328.6 212.5,328.6 
		212.5,330.4 208.9,330.4 208.9,333.8 214.8,333.8 214.8,335.8 206.5,335.8 206.5,323.9 	"/>
	<path id="XMLID_27_" class="st1" d="M231.6,332.4c-0.2,0.7-0.4,1.2-0.7,1.6c-0.4,0.6-1,1.1-1.7,1.5c-0.7,0.4-1.5,0.5-2.4,0.5
		c-1,0-1.9-0.2-2.7-0.7c-0.9-0.5-1.5-1.1-2-2.1c-0.5-0.9-0.7-2-0.7-3.2c0-1.3,0.2-2.4,0.7-3.4c0.5-1,1.1-1.7,2-2.2
		c0.9-0.5,1.8-0.7,2.8-0.7c0.7,0,1.4,0.1,2.1,0.4c0.7,0.3,1.2,0.7,1.7,1.3c0.3,0.4,0.6,0.9,0.7,1.5l-2.3,0.6
		c-0.2-0.6-0.5-1.1-0.9-1.5c-0.4-0.3-0.9-0.5-1.5-0.5c-0.9,0-1.6,0.4-2,1.2c-0.5,0.8-0.7,1.8-0.7,3.1c0,0.8,0.1,1.5,0.3,2.1
		c0.2,0.6,0.5,1.1,0.9,1.4c0.4,0.3,0.8,0.4,1.3,0.4c0.7,0,1.3-0.2,1.8-0.7c0.4-0.3,0.7-0.8,0.9-1.4L231.6,332.4"/>
	<path id="XMLID_30_" class="st1" d="M238.2,323.7c1.2,0,2.1,0.2,2.8,0.6c0.9,0.5,1.6,1.2,2.1,2.1c0.5,0.9,0.7,2.1,0.7,3.6
		c0,2-0.5,3.5-1.5,4.6c-1,1-2.3,1.5-3.9,1.5c-1.6,0-3-0.5-4-1.6c-1-1-1.5-2.6-1.5-4.6c0-1.2,0.2-2.3,0.6-3.3c0.2-0.5,0.6-1,1-1.5
		c0.5-0.5,1-0.8,1.6-1.1C236.8,323.8,237.5,323.7,238.2,323.7z M238.4,325.7c-0.8,0-1.5,0.3-2.1,1c-0.5,0.6-0.8,1.7-0.8,3.2
		c0,1.5,0.3,2.5,0.8,3.1c0.6,0.6,1.3,1,2.1,1c0.8,0,1.5-0.3,2.1-1c0.5-0.6,0.8-1.7,0.8-3.1c0-1.6-0.3-2.8-1-3.4
		C239.9,326,239.2,325.7,238.4,325.7"/>
	<path id="XMLID_33_" class="st1" d="M246.2,323.9h3.4c1.8,0,3,0.1,3.7,0.4c0.7,0.3,1.2,0.7,1.6,1.3c0.4,0.6,0.6,1.3,0.6,2.1
		c0,0.7-0.2,1.3-0.5,1.8c-0.3,0.5-0.9,0.9-1.8,1.2l2.2,5.2h-2.4l-2.1-4.8h-2.3v4.8h-2.4V323.9z M248.6,326v3.2h2
		c0.7,0,1.3-0.2,1.8-0.6c0.3-0.3,0.5-0.6,0.5-1.1c0-0.4-0.2-0.8-0.6-1.1c-0.4-0.3-1-0.4-1.8-0.4H248.6"/>
	<path id="XMLID_36_" class="st1" d="M257.7,323.9h3.9c1.4,0,2.4,0.1,3.1,0.3c0.7,0.2,1.2,0.6,1.7,1.1c0.4,0.5,0.6,1.2,0.6,2
		c0,0.6-0.1,1.2-0.4,1.7c-0.2,0.4-0.5,0.7-0.9,1c-0.4,0.3-0.8,0.5-1.2,0.7c-0.7,0.3-1.4,0.4-2.3,0.4h-2.2v4.7h-2.5V323.9z
		 M260.2,325.9v3.2h2c0.7,0,1.4-0.2,1.9-0.6c0.3-0.3,0.5-0.6,0.5-1.1c0-0.5-0.2-0.8-0.5-1.1c-0.4-0.3-0.9-0.4-1.8-0.4H260.2"/>
	<path id="XMLID_39_" class="st1" d="M273.9,323.7c1.2,0,2.1,0.2,2.8,0.6c0.9,0.5,1.7,1.2,2.1,2.1c0.5,0.9,0.7,2.1,0.7,3.6
		c0,2-0.5,3.5-1.5,4.6c-1,1-2.3,1.5-3.9,1.5c-1.6,0-3-0.5-4-1.6c-1-1-1.5-2.6-1.5-4.6c0-1.2,0.2-2.3,0.6-3.3c0.2-0.5,0.6-1,1-1.5
		c0.5-0.5,1-0.8,1.6-1.1S273.1,323.7,273.9,323.7z M274.1,325.7c-0.8,0-1.5,0.3-2.1,1c-0.5,0.6-0.8,1.7-0.8,3.2
		c0,1.5,0.3,2.5,0.8,3.1c0.6,0.6,1.3,1,2.1,1c0.8,0,1.5-0.3,2.1-1c0.5-0.6,0.8-1.7,0.8-3.1c0-1.6-0.3-2.8-1-3.4
		C275.5,326,274.9,325.7,274.1,325.7"/>
	<path id="XMLID_42_" class="st1" d="M281.8,323.9h3.4c1.8,0,3,0.1,3.7,0.4c0.7,0.3,1.2,0.7,1.6,1.3c0.4,0.6,0.6,1.3,0.6,2.1
		c0,0.7-0.2,1.3-0.5,1.8c-0.3,0.5-0.9,0.9-1.8,1.2l2.2,5.2h-2.4l-2.1-4.8h-2.3v4.8h-2.4V323.9z M284.3,326v3.2h2
		c0.7,0,1.3-0.2,1.8-0.6c0.3-0.3,0.5-0.6,0.5-1.1c0-0.4-0.2-0.8-0.6-1.1c-0.4-0.3-1-0.4-1.8-0.4H284.3"/>
	<path id="XMLID_45_" class="st1" d="M296.2,323.9h2.6l4,11.9h-2.4l-0.9-2.8h-4l-0.9,2.8h-2.4L296.2,323.9z M297.5,327.1l-1.4,4.2
		h2.8L297.5,327.1"/>
	<polyline id="XMLID_46_" class="st1" points="302.3,323.9 311.7,323.9 311.7,325.9 308.2,325.9 308.2,335.8 305.8,335.8 
		305.8,325.9 302.3,325.9 302.3,323.9 	"/>
	<rect id="XMLID_47_" x="313.9" y="323.9" class="st1" width="2.4" height="11.9"/>
	<path id="XMLID_50_" class="st1" d="M324,323.7c1.2,0,2.1,0.2,2.8,0.6c0.9,0.5,1.7,1.2,2.1,2.1c0.5,0.9,0.7,2.1,0.7,3.6
		c0,2-0.5,3.5-1.5,4.6c-1,1-2.3,1.5-3.9,1.5c-1.6,0-3-0.5-4-1.6s-1.5-2.6-1.5-4.6c0-1.2,0.2-2.3,0.6-3.3c0.2-0.5,0.6-1,1-1.5
		c0.5-0.5,1-0.8,1.6-1.1C322.6,323.8,323.3,323.7,324,323.7z M324.2,325.7c-0.8,0-1.5,0.3-2.1,1c-0.5,0.6-0.8,1.7-0.8,3.2
		c0,1.5,0.3,2.5,0.8,3.1c0.6,0.6,1.3,1,2.1,1c0.8,0,1.5-0.3,2.1-1c0.5-0.6,0.8-1.7,0.8-3.1c0-1.6-0.3-2.8-1-3.4
		C325.7,326,325,325.7,324.2,325.7"/>
	<polyline id="XMLID_51_" class="st1" points="331.9,323.9 334.5,323.9 339.6,331.9 339.6,323.9 342,323.9 342,335.8 339.6,335.8 
		334.3,327.5 334.3,335.8 331.9,335.8 331.9,323.9 	"/>
	<path id="XMLID_54_" class="st1" d="M354.6,323.7c1.2,0,2.1,0.2,2.8,0.6c0.9,0.5,1.7,1.2,2.1,2.1c0.5,0.9,0.7,2.1,0.7,3.6
		c0,2-0.5,3.5-1.5,4.6c-1,1-2.3,1.5-3.9,1.5c-1.6,0-3-0.5-4-1.6c-1-1-1.5-2.6-1.5-4.6c0-1.2,0.2-2.3,0.6-3.3c0.2-0.5,0.6-1,1-1.5
		c0.5-0.5,1-0.8,1.6-1.1C353.2,323.8,353.9,323.7,354.6,323.7z M354.9,325.7c-0.8,0-1.5,0.3-2.1,1c-0.5,0.6-0.8,1.7-0.8,3.2
		c0,1.5,0.3,2.5,0.8,3.1c0.6,0.6,1.3,1,2.1,1c0.8,0,1.5-0.3,2.1-1c0.5-0.6,0.8-1.7,0.8-3.1c0-1.6-0.3-2.8-1-3.4
		C356.3,326,355.6,325.7,354.9,325.7"/>
	<polyline id="XMLID_55_" class="st1" points="362.6,323.9 370.2,323.9 370.2,325.9 365,325.9 365,329.1 368,329.1 368,331.1 
		365,331.1 365,335.8 362.6,335.8 362.6,323.9 	"/>
	<rect id="XMLID_56_" x="377.6" y="323.9" class="st1" width="2.4" height="11.9"/>
	<polyline id="XMLID_57_" class="st1" points="383.1,323.9 385.7,323.9 390.8,331.9 390.8,323.9 393.2,323.9 393.2,335.8 
		390.8,335.8 385.6,327.5 385.6,335.8 383.1,335.8 383.1,323.9 	"/>
	<path id="XMLID_60_" class="st1" d="M396.1,323.9h4.5c1.1,0,2,0.2,2.9,0.8c0.8,0.5,1.5,1.2,1.9,2.1c0.4,0.9,0.7,1.9,0.7,3
		c0,1.1-0.2,2-0.6,2.9c-0.4,0.9-0.9,1.5-1.5,2c-0.4,0.3-1,0.6-1.7,0.8c-0.7,0.2-1.4,0.3-2.2,0.3h-4.1V323.9z M398.6,325.9v7.8h1.7
		c0.6,0,1.1-0.2,1.6-0.5c0.5-0.3,0.8-0.7,1.1-1.2c0.4-0.7,0.6-1.5,0.6-2.3c0-1.2-0.3-2.1-1-2.8c-0.7-0.7-1.6-1-2.7-1H398.6"/>
	<rect id="XMLID_61_" x="408.6" y="323.9" class="st1" width="2.4" height="11.9"/>
	<path id="XMLID_64_" class="st1" d="M417,323.9h2.6l4,11.9h-2.4l-0.9-2.8h-4l-0.9,2.8H413L417,323.9z M418.3,327.1l-1.4,4.2h2.8
		L418.3,327.1"/>
	<path id="XMLID_68_" class="st0" d="M149,224.4c3.9-2.2,6.7-6.2,6.7-8.5c0-1.7-2.7-3.1-6.7-3.8v0.7c3.1,0.6,5.3,1.6,5.3,2.4
		c0,0.8-1.9,1.5-4.5,1.9h-0.1c-0.2,0-0.5,0-0.7,0.1V224.4z M144.4,211.7c0.3-0.9,0.7-2,1.1-3.2c1.3-3.3-0.5-7.1-1-8.2
		c-0.6-1.1-2-4.4-2-4.4c-0.7,5.1-3,7.3-3.8,9.8c-0.4,1.3,0.2,2.8,0.8,4c0.4,0.7,0.9,1.4,1.3,2.1c-1,0.1-2,0.3-2.8,0.5v0.6
		c1-0.2,2.1-0.4,3.2-0.5c0.1,0.2,0.3,0.3,0.4,0.5c0.6,0.8,1.1,1.6,1.1,2.7c0,1.7-2.9,1.7-4.7,1.5v6.9c1.8,1.1,3.8,1.8,6,1.8
		c1.8,0,3.5-0.5,5.1-1.3v-7.2c-1.9,0-4.4-0.1-5.1-1.7c-0.3-0.6-0.1-1.7,0.3-3.2c1.8,0,3.4,0.2,4.8,0.5V212
		C147.6,211.9,146.1,211.7,144.4,211.7z M137.9,212.2c-3.5,0.7-5.9,2.1-5.9,3.6c0,2.1,2.4,5.8,5.9,8.1V217c-2.8-0.4-4.7-1.1-4.7-1.9
		c0-0.8,1.9-1.8,4.7-2.3V212.2"/>
	<path id="XMLID_69_" class="st0" d="M117.6,198.1c0,0,0.6-2.3,0.6-2.7c0-0.6-0.4-2.3,1.5-1.2c1.9,1,1.4,2.4,1,3.3
		c-0.4,0.8-1.4,3.8-1.9,4.8l-2.1,5.5c0,0-0.2,0.5-0.3,0.7c-0.1,0.1-0.9,2.9-0.6,6l0.4,3.6c0,0,0.1,0.3,0.4,0c0,0,0.4-0.2,0.1-2
		c0,0,0-3.7,0.1-4.4c0.1-0.8,0.5-3.1,0.7-3.5c0.2-0.5,0.3-0.6,0.7-1.6c0.4-1.1,1.7-4.3,1.7-4.3s1.8-3.5,2-4.4c0,0,0.8-1.9,0.7-4.4
		c0,0-0.2-0.7,0.1-0.9c0.4-0.3,1.7,0,2.2,0.4c0.5,0.4,1.4,1.2,1.3,2.4c-0.1,1.1-0.7,3.2-1.5,5.2c0,0-0.7,1.5-1.1,2
		c-0.3,0.4-2.1,4.3-2.1,4.5c-0.1,0.2-0.2,0.5-0.4,0.7c0,0-0.9,2.5-1,3.4c-0.2,0.9-0.5,1.9-0.7,3.9c-0.1,1.9,0.6,4.5,0.6,4.5
		s0.1,0.5,0.4,0.5s0.3-1,0.3-1.1c0-0.2-0.1-1.1-0.2-1.6c-0.1-0.4,0-3.6,0-3.6s0.3-2.3,1-3.9c0.3-0.6,0.5-1.5,0.9-2.3
		c0.6-1.3,1.2-2.5,1.2-2.5s2.2-4.5,2.3-4.8c0.1-0.3,1.2-3,1.3-4.4c0-1.3,0.3-2.3,0.3-2.3s-0.2-1,1.2-0.5c1.3,0.6,2.2,1.7,2.3,2.7
		c0,0,0.2,1-0.2,1.1c-0.5,0.2-0.7-0.1-1,0.2c0,0-0.3,0.2-0.3,0.7c-0.1,0.4-0.4,1.6-0.5,1.9c0,0.4,0,0.8-0.3,1.9
		c-0.4,1-1.6,4.4-1.7,4.6c0,0-0.8,2.3-0.9,2.4c0,0.2-0.2,0.5-0.3,0.7c0,0.1-1.1,3.8-1.2,4.6c-0.1,0.8-0.4,2.3-0.3,3.3
		c0,0.9,0.3,2.1,0.5,2.9c0,0,0.1,0.3,0.5,0.2c0.3-0.1-0.3-1.2-0.1-2.9c0.2-1.7,0.5-4,0.7-4.6c0.1-0.7,1.3-3.9,1.3-4
		c0.1-0.2,1.2-3.4,1.5-3.9c0.2-0.6,1.2-3.6,1.3-4.1c0.1-0.6,0.1-2.1,1.7-2.3c1.7,0.5,1.6,3.3,1.4,4.3c0,0-0.3,2.9-1.4,5.2
		c-1,2.2-0.9,2.2-0.9,2.3c0,0.2,0.3,2.3,0.2,3.2c0,0.8,0.1,1.7-0.4,3.5c-0.6,1.8-0.2,2-0.1,2.3c0.2,0.4,1.2,1.7,1.5,2.4
		c0.2,0.8,0.5,2.3,0.6,2.5c0.1,0.2,1.3,1.3,1.8,2.2c0.4,0.8,1.7,2.7,1.8,2.9c0.1,0.3,4.1,5.2,5.2,7c1.1,1.9,2.1,3.6,2,5.3
		c-0.1,1.3-0.7,2.7-1.5,3.8c-0.4,0.5-0.9,0.9-1.5,1.3c-0.3,0.2-1,0.5-1.2,0.9l-0.8,3.4h-15.4l3.3-5.6c0,0,1.1-0.7-1.3-3.5
		c-2.4-2.7-6.4-9.6-6.4-9.6s-3.6-6-4.3-7.2c-1.1-1.6-0.9-9.7-0.9-12.1c0,0-0.4-2.9,1.3-6.8C116.2,201.8,117.6,198.1,117.6,198.1"/>
	<path id="XMLID_70_" class="st0" d="M170,198.1c0,0-0.5-2.3-0.6-2.7c0-0.6,0.4-2.3-1.5-1.2c-1.8,1-1.3,2.4-1,3.3
		c0.4,0.8,1.4,3.8,2,4.8l2.1,5.5c0,0,0.2,0.5,0.2,0.7c0.1,0.1,0.9,2.9,0.6,6l-0.4,3.6c0,0-0.1,0.3-0.4,0c0,0-0.4-0.2-0.1-2
		c0,0,0-3.7-0.1-4.4c-0.1-0.8-0.4-3.1-0.7-3.5c-0.2-0.5-0.3-0.6-0.7-1.6c-0.3-1.1-1.7-4.3-1.7-4.3s-1.8-3.5-2-4.4
		c0,0-0.8-1.9-0.7-4.4c0,0,0.3-0.7-0.1-0.9c-0.4-0.3-1.6,0-2.1,0.4s-1.5,1.2-1.4,2.4c0.2,1.1,0.7,3.2,1.5,5.2c0,0,0.7,1.5,1.1,2
		c0.3,0.4,2.1,4.3,2.2,4.5c0,0.2,0.2,0.5,0.3,0.7c0,0,0.9,2.5,1,3.4c0.2,0.9,0.6,1.9,0.7,3.9c0.1,1.9-0.6,4.5-0.6,4.5
		s-0.1,0.5-0.4,0.5s-0.3-1-0.3-1.1c0-0.2,0.1-1.1,0.2-1.6c0.1-0.4,0-3.6,0-3.6s-0.3-2.3-1-3.9c-0.2-0.6-0.5-1.5-0.9-2.3
		c-0.5-1.3-1.2-2.5-1.2-2.5s-2.1-4.5-2.2-4.8c-0.1-0.3-1.3-3-1.4-4.4c0-1.3-0.3-2.3-0.3-2.3s0.3-1-1.1-0.5c-1.4,0.6-2.3,1.7-2.4,2.7
		c0,0-0.2,1,0.3,1.1c0.4,0.2,0.7-0.1,0.9,0.2c0,0,0.3,0.2,0.4,0.7c0,0.4,0.3,1.6,0.4,1.9c0.1,0.4,0,0.8,0.3,1.9
		c0.4,1,1.6,4.4,1.7,4.6c0,0,0.8,2.3,0.9,2.4c0.1,0.2,0.2,0.5,0.3,0.7c0.1,0.1,1.1,3.8,1.2,4.6c0.1,0.8,0.4,2.3,0.4,3.3
		c-0.1,0.9-0.3,2.1-0.5,2.9c0,0-0.2,0.3-0.5,0.2c-0.4-0.1,0.2-1.2,0-2.9c-0.1-1.7-0.5-4-0.7-4.6c-0.1-0.7-1.2-3.9-1.3-4
		c0-0.2-1.2-3.4-1.5-3.9c-0.2-0.6-1.1-3.6-1.3-4.1c-0.1-0.6-0.1-2.1-1.7-2.3c-1.7,0.5-1.6,3.3-1.4,4.3c0,0,0.3,2.9,1.4,5.2
		c1.1,2.2,0.9,2.2,0.9,2.3c0,0.2-0.3,2.3-0.2,3.2c0,0.8-0.1,1.7,0.4,3.5c0.6,1.8,0.2,2,0.1,2.3c-0.1,0.4-1.2,1.7-1.5,2.4
		c-0.2,0.8-0.4,2.3-0.6,2.5c-0.1,0.2-1.3,1.3-1.8,2.2c-0.4,0.8-1.7,2.7-1.8,2.9c-0.1,0.3-4.1,5.2-5.2,7c-1.1,1.9-2,3.6-1.9,5.3
		c0,1.3,0.6,2.7,1.5,3.8c0.4,0.5,0.8,0.9,1.4,1.3c0.4,0.2,1,0.5,1.2,0.9l0.8,3.4H165l-3.3-5.6c0,0-1.2-0.7,1.2-3.5
		c2.4-2.7,6.4-9.6,6.4-9.6s3.7-6,4.4-7.2c1-1.6,0.9-9.7,0.8-12.1c0,0,0.4-2.9-1.3-6.8C171.6,201.8,170,198.1,170,198.1"/>
	<path id="XMLID_73_" class="st0" d="M143.9,281.2c1.5-0.1,2.8-0.1,2.8-0.1c10.1,0,19.8-4.4,27.5-12.4c6.6-6.9,10.7-15.6,10.7-22.7
		v-36.4c0-6.5-4.2-15.1-10.9-22c-7.8-8.1-17.7-12.5-27.9-12.5c0,0-1.1,0-2.2,0v1.1c1.2,0,2.2,0,2.2,0c16.2,0,28.4,11.6,34.1,22.3
		c2.1,4,1.4,8,1.4,11.1V246c0,3.9,0.5,8.5-1.9,12.8c-1.7,3.2-3.7,6.4-6.4,9.2c-7.5,7.7-16.9,11.9-26.6,11.9c0,0-1.4,0.1-2.8,0.1
		V281.2z M143.9,175c-1.3,0-2.5,0-2.5,0c-10.1,0-20.1,4.4-27.9,12.5c-6.7,6.9-10.9,15.5-10.9,22.4v36.3c0,6.9,4.1,15.6,10.7,22.4
		c7.7,8,17.4,12.4,27.5,12.4c0,0,1.6,0.1,3,0.1h0.2V280c-1.6,0-3.2-0.1-3.2-0.1c-9.7,0-19.1-4.2-26.6-11.9c-2.6-2.8-4.9-5.9-6.6-9
		c-1.7-3.5-1.4-8.9-1.4-13v-36.4c0-3.9-0.7-8.8,2.4-13.7c6.2-10,18-19.6,32.8-19.6c0,0,1.3,0,2.5,0V175"/>
	<path id="XMLID_74_" class="st0" d="M138.7,258.4c0,0.4-0.3,0.7-0.7,0.7c-0.4,0-0.7-0.3-0.7-0.7c0-0.3,0.3-0.6,0.7-0.6
		C138.4,257.8,138.7,258.1,138.7,258.4"/>
	<path id="XMLID_79_" class="st0" d="M139.4,260.1c0,0-1.7-0.1-3.1-0.3v1.1c0.3,0,0.6,0.1,0.8,0.1l-0.1,2.1h-0.7v1.7l0.5,0.1
		l-0.1,2.3l1.5,0.2l0.6-6.2h0.6L139.4,260.1z M136.3,259.9c-0.3,0-0.6-0.1-0.9-0.1c-0.7-0.1-1.5-0.3-2.3-0.5l-1-1.6l-1.7-0.4l1,1.6
		c-0.4-0.1-0.6-0.1-0.6-0.1l-0.3,1c0,0,0.2,0.1,0.5,0.1l-0.2,0.9l-1.4-0.3c0.5-0.4,0.8-0.8,0.8-1.4c0-0.9-0.8-1.7-1.8-1.7v1.3
		c0.3,0,0.4,0.2,0.4,0.4c0,0.2-0.1,0.3-0.2,0.4h-0.2v2.1l2.1,0.6l-0.9,4.1l1.6,0.3l1.4-6.3c0.5,0.1,1,0.3,1.5,0.3l-0.3,2.3
		c0,0-0.8-0.2-1,0.7c-0.1,0.8,0.8,1.5,1.2,1.9c0.7,0.8,1.2-0.5,1.2-0.5v-0.2l1.1,0.1v-1.7l-0.9-0.1l0.4-2.2c0.2,0.1,0.3,0.1,0.5,0.1
		V259.9z M128.5,266v-2.8c0.2-0.1,0.4-0.1,0.4-0.1l0.7,0.8c-0.2,0.3-0.5,0.5-0.8,0.7l-0.1,1.4H128.5z M128.5,257.5
		c-1.1,0-1.9,0.7-1.9,1.7c0,0.4,0.1,0.8,0.4,1c-0.4,0.1-0.7,0.3-0.8,0.4c-0.4,0.4-1.4,1.2-1.1,2.3c0.2,1.2,1.5,1.8,1.9,2h0.2
		l0.1,0.8l1.2,0.3v-2.8c-0.2,0.1-0.5,0.2-0.6,0.2c-0.4,0.1-0.8-0.1-1.1-0.4c-0.5-0.8,0.6-1.8,1.5-1.4l0.2,0.1v-2.1
		c-0.2,0-0.4-0.2-0.4-0.4c0-0.2,0.2-0.4,0.4-0.4V257.5"/>
	<path id="XMLID_82_" class="st0" d="M126.2,258.8l0.4-1c0,0-2.9-1-5.9-2.4l-0.5-2.1l-1.4-0.7l0.4,2.1c-1.8-0.9-3.3-1.9-4.3-2.4v2.8
		c0.4-0.5,0.5-0.9,0.5-1.2c0.4,0.2,0.9,0.5,1.3,0.8l-1.4,2.2c0,0-0.1,0.2-0.4,0.3v3.7l3.2-5.4c0.3,0.2,0.6,0.3,0.9,0.5l-3.1,5.7
		l1.4,0.7l3.1-5.7c0.4,0.2,0.8,0.4,1.2,0.6c0.6,1.9-0.3,2.4-0.3,2.4c-0.2-0.5-1-0.6-1-0.6s-1.2,0.2-0.9,1.3c0.2,1.1,1.3,1.9,2.5,0.8
		c1.1-0.9,1.3-2.6,1.3-3.3c0.3,0.1,0.7,0.3,1,0.4l-2.4,6l1.5,0.6l2.3-6C126,258.7,126.2,258.8,126.2,258.8z M114.9,252.2
		c-0.6-0.5-1-0.7-1-0.7l-0.8,0.8c0,0,0.4,0.2,0.9,0.6c0,0.2,0.2,1.5-1.5,1.2h-0.6c0,0-1.1,1.9,0.1,3.5c0.8,0.9,2.5,0.8,2.5,0.8
		l-1.1,1.7l1.4,0.8l0.1-0.2V257c-0.3,0.1-0.8,0.1-1.3-0.2c-0.8-0.7-0.3-1.2-0.3-1.2c0.8,0,1.3-0.2,1.6-0.6V252.2"/>
	<path id="XMLID_88_" class="st0" d="M176.5,257.5l1.1-0.9l-4-5.2c0.5-0.4,0.8-0.6,0.8-0.6l-0.6-0.6c0,0-0.5,0.4-1.4,0.9v1.4
		l1.3,1.5l-1.1,0.8l-0.2-0.2v2.5c0.2,0,0.4,0,0.6,0c0.8,0,0.6-1,0.6-1l1.2-0.8L176.5,257.5z M172.3,251.2c-2,1.3-5.8,3.7-10.2,5.4
		v1.2l1.1,2.2c0.1,0.6-0.1,1.4-1,1.6l-0.1,0.1v1.5c0.8,0,1.6-0.2,2.2-1l0.9,1.6l1.4-0.6l-2.8-6.1c1.2-0.5,2.3-1,3.2-1.5l0.2,0.3
		c0,0-0.5,0.4-1.1,0.8c-0.6,0.4-0.9,0.8-0.8,1.6c0,0.8,1.4,1.4,1.4,1.4s-0.2,0.8,0.3,1.9c0.9,1.6,3.4,0.9,3.4,0.9l-0.3-1.1l-0.6,0.1
		c-1.3-0.1-1.3-1-1.3-1.3c0.1-0.3,0.4-1.3,1.4-1.2c1,0.1,0.6,1.3,0.6,1.3l1,0.5c0.3-0.3,0.5-0.7,0.5-0.7c0.2-2.3-1-2.4-2-2.6
		c-1-0.3-1.9,0.6-1.9,0.6s-0.5,0.3-0.6,0.1c-0.1-0.2,0.1-0.4,0.1-0.4l2.1-1.4l-1-1.6c0.5-0.2,0.9-0.5,1.2-0.7
		c0.4,0.4,1.4,1.9,1.4,1.9c0,0.2-0.3,0.3-0.2,0.8c0.2,0.6,0.9,0.7,1.6,0.7v-2.5l-1.3-1.7c0.4-0.2,0.8-0.5,1.1-0.7l0.2,0.2V251.2z
		 M162.1,256.7c-1,0.4-2,0.8-2.9,1.1c-5.8,1.8-12.2,2.3-15.3,2.4v0.9c0.2,0,0.4,0,0.7,0v0.7c-0.2,0.1-0.4,0.1-0.5,0.1h-0.2v1.4h0.2
		c0.2,0,0.5,0,0.7,0.1l0.1,1.6c-0.2,0.1-0.5,0.2-0.8,0.2h-0.2v1.4h0.2c0.3,0,0.7-0.1,1-0.2l0.1,1.2l1.6-0.1l-0.5-6.5
		c1.2-0.1,2.4-0.2,3.8-0.4l0.2,0.6c0,0-0.8,0.1-1.5,0.2c-0.7,0.2-1,0.5-1.3,1.2c-0.3,0.7,0.8,1.8,0.8,1.8s-0.6,0.7-0.4,1.9
		c0.2,1.8,2.8,2.1,2.8,2.1l0.2-1.1l-0.7-0.2c-1.2-0.6-0.8-1.4-0.7-1.6c0.2-0.3,0.9-1.1,1.8-0.8c0.9,0.5,0,1.4,0,1.4l0.8,0.8
		c0.4-0.2,0.7-0.5,0.7-0.5c1.1-2.1,0-2.6-0.9-3.2c-0.8-0.5-1.9,0-1.9,0s-0.6,0.1-0.7-0.1c0-0.2,0.3-0.4,0.3-0.4l2.4-0.5l-0.3-1.9
		c0.3-0.1,0.7-0.1,1-0.2l1.8,6.3l1.6-0.3l-1.7-6.3c0.5-0.1,0.9-0.2,1.4-0.3c0.2,0.6,0.9,2.4,0.9,2.4l-0.6,0.4c0,0-0.6,0.7,0.3,1.1
		c0.9,0.6,1.5,0.7,1.7,0.8c0.1,0,0.7-0.2,0.7-1l1-0.4l-1-1.4l-0.6,0.2l-0.8-2.4c0.6-0.2,1.2-0.3,1.7-0.5c0.3,0.1,0.9,0.4,0.9,0.9
		c-0.1,0.9-0.9,0.9-0.9,0.9l-0.4,0.5c0,0,1,1.6,2.4,1.9c0.4,0,0.7,0.1,1.1,0.1v-1.5c-0.9,0.1-1.2-0.7-1.2-0.7s0.6-0.4,0.7-1.2
		c0-0.7-0.4-1.4-0.5-1.6c0.3-0.2,0.6-0.3,1-0.4V256.7z M143.9,260.2c-1.3,0.1-2.1,0.1-2.1,0.1l0.1,0.9c0,0,0.7,0,2-0.1V260.2z
		 M143.9,261.9c-1.5,0.1-2.6,1.1-2.6,2.3c0,1.2,1.2,2.3,2.6,2.3v-1.4c-0.6-0.1-1.1-0.5-1.1-0.9c0-0.5,0.5-0.8,1.1-0.9V261.9"/>
	<path id="XMLID_89_" class="st0" d="M177.1,257.5l1.5-0.8c0,0,0.3-0.2,0.5,0c0.2,0.3-0.1,0.4-0.1,0.4s-1.1,1-1.4,1
		c-0.3,0.1-0.4,0-0.5,0C177.1,258.1,177,257.7,177.1,257.5"/>
	<path id="XMLID_92_" class="st1" d="M263.2,303.4h-38.7c0,0-0.4,0-0.9,0c-1.1,0-2.9,0-3.1,0c-0.2-0.2-1.3-1.5-1.3-1.5l-1.2-1.2
		c-0.9-0.9-2-1.6-3.3-2.2c-1.1-0.5-2.1-0.8-3.1-0.8c-2.3,0-4,0.8-4.8,2.5c-0.3,0.6-0.5,1.1-0.4,1.5l0.1,0.7l0.3,0.6l0.3,0.4h-18.6
		v1.9c0,0,19.6,0,20.4,0c0,0.5,0,2.1,0,2.6c-0.7,0-10.3,0-10.3,0l1,0.7l0.5,0.4l1.1,1c0.4,0.4,0.8,0.9,1.1,1.5
		c0.2,0.4,0.3,0.8,0.3,1.2c0,0.5-0.2,0.8-0.5,1.1c-0.4,0.4-0.9,0.5-1.6,0.5c-1.3,0-2.6-0.6-3.8-1.8c-1.1-1-1.9-2.1-2.4-3.2l-0.7-1.5
		l0-0.2v-0.9l-2.6,1.3l0.3,0.9l0.8,1.4c0.8,1.5,1.8,2.7,3,3.7c1.7,1.3,3.5,2,5.4,2c0.8,0,1.5-0.1,2.1-0.2c1.3-0.4,2.2-1,2.6-1.9
		c0.2-0.5,0.4-0.9,0.4-1.4l-0.2-0.8l-0.4-1l-0.7-1.2c1.2,0,4.3,0,4.9,0c0,0.7,0,8.3,0,8.3h2.9c0,0,0-11.9,0-12.7c0.5,0,2.2,0,3,0
		c0.2,0,0.3,0,0.3,0c0.8,0,2.7,0,3.2,0c0,0.7,0,12.7,0,12.7h2.9c0,0,0-11.9,0-12.7c0.4,0,1.6,0,2.5,0c0.5,0,0.9,0,0.9,0
		c2.9,0,11.8,0,12.4,0c0,0.7,0,6.1,0,6.4c-0.4,0.4-0.9,0.7-1.7,0.9c-0.4,0.2-0.8,0.3-1.2,0.4l-0.8,0.1l-0.4,0c-0.5,0-1-0.1-1.5-0.2
		c-1.2-0.4-1.8-1.1-1.8-2.3c0-0.3,0.1-0.6,0.2-0.8c0.4-0.6,0.9-1,1.4-1.2c0.4-0.1,0.8-0.2,1.4-0.2l1,0.1l1,0.2l0.3,0.1l1.2,0.5
		l-0.8-2.4l-0.2,0l-0.7-0.1l-0.6-0.1l-0.8-0.1l-0.8,0c-1.5-0.1-2.9,0.4-4,1.2c-1.2,0.9-1.8,1.9-1.8,3c0,0.6,0.2,1.2,0.5,1.7
		c0.3,0.4,0.9,0.9,1.5,1.3c1.2,0.7,2.7,1.1,4.4,1.1l1.3-0.1l1.3-0.3l1-0.4c0,0,0.2-0.1,0.3-0.2c0,0.9,0,3.9,0,3.9h2.9
		c0,0,0-11.9,0-12.7c0.4,0,1.8,0,2.7,0c0.5,0,0.9,0,0.9,0c3.1,0,13.3,0,13.9,0c0,0.5,0,2.3,0,2.8c-0.8,0-10.6,0-10.6,0l-0.5,0
		l-0.4,0.1c-0.8,0.3-1,0.8-1,1.2v0l0,0c0.1,0.3,0.3,0.6,0.6,0.9c0.4,0.5,0.9,0.9,1.3,1.2l1.5,1.1c0.6,0.3,0.9,0.4,1.1,0.4l0.6-0.1
		l0.4-0.2l0.3-0.4l0-0.4c0,0,0-1.4,0-1.9c0.7,0,6,0,6.7,0c0,0.7,0,7.9,0,7.9h2.9c0,0,0-11.9,0-12.7c0.6,0,3.3,0,3.3,0v-1.9H263.2z
		 M215,303.4h-4.6l-0.2-0.2l-0.5-0.6l-0.4-0.7l-0.1-0.5l0-0.4c0.1-0.3,0.3-0.7,0.6-0.9c0.4-0.4,0.9-0.5,1.7-0.5
		c0.8,0,1.9,0.5,3.1,1.4c1.9,1.4,2.6,2.2,2.9,2.5C217,303.4,215.7,303.4,215,303.4"/>
	<path id="XMLID_96_" class="st1" d="M172.6,303.4v1.9c0,0-2.3,0-2.9,0c0,0.7,0,12.7,0,12.7h-2.9c0,0,0-3.1,0-3.9
		c-1.3,0.6-2.8,1-4.5,1c-2.2,0-4-0.5-5.5-1.4c-1.7-1-2.6-2.4-2.6-3.9v-0.5l0.8,0.2l0.3,0.1l0.5,0.1l-0.1,0h0.4
		c0.9,0,1.7-0.2,2.3-0.5c0.5-0.3,0.8-0.7,0.8-1.4c0-0.3-0.2-0.8-0.9-1.6c0,0-0.7-0.6-0.9-0.8c-0.2,0-4.1,0-5.4,0c0,0-0.2,0-0.5,0
		c-0.8,0-2.4,0-2.9,0c0,0.7,0,12.7,0,12.7h-2.9c0,0,0-11.9,0-12.7c-0.4,0-1.9,0-2.8,0c0,0-0.3,0-0.7,0c-0.9,0-2.5,0-2.9,0
		c0,0.7,0,12.7,0,12.7h-2.9c0,0,0-8.2,0-8.9c-0.7,0-7.1,0-7.1,0c-0.4,0-0.8,0-1.2,0.2c-0.5,0.1-0.8,0.3-1,0.7c0,0.1-0.1,0.5-0.1,0.5
		c0,1.1,0.5,2.3,1.6,3.4c1.1,1.2,2.1,2,2.9,2.3l0.6,0.1l1,0.2l-2.1,1.5l0,0.2l-0.2-0.1l-0.7-0.3l-1.1-0.7l-1.6-1.2l-0.8-0.7
		l-0.6-0.7c-1.1-1.3-1.7-2.6-1.7-3.9c0-0.9,0.4-1.7,1-2.3c0.3-0.3,0.7-0.5,1.3-0.7c0.5-0.2,1.1-0.3,1.6-0.3c0,0,7.6,0,8.4,0
		c0-0.5,0-1.4,0-1.9c-0.6,0-10.4,0-13.9,0c0,0-0.5,0-1.2,0c-0.8,0-1.7,0-2,0c0,0.6,0,3.1,0,3.1c0,1.4-1,2.3-3,2.8
		c-0.6,0.2-1.2,0.2-1.7,0.2c0,0-0.2,0-0.3,0c0.8,0.8,2,1.9,2,1.9l1.1,0.9l2.1,1.5l1.4,0.9l-2.2,1.3l-0.2,0c-0.5-0.1-1.3-0.6-2.4-1.5
		c-1.4-1.1-2.7-2.2-3.9-3.5l-1.3-1.2l-1.2-1.3l-0.8-1l-1.1-1.3l2.4-1.2l1.8,2.1c0.3,0.4,1,0.5,2,0.5c0.8,0,1.5-0.1,1.8-0.3
		c0.3-0.2,0.5-0.6,0.6-1c0,0,0-2.4,0-3c-0.6,0-6.4,0-9.4,0c-1,0-1.7,0-1.7,0c-0.9,0-1.8,0-2.2,0c0,0.7,0,12.7,0,12.7h-2.9
		c0,0,0-11.9,0-12.7c-0.4,0-1.9,0-2.9,0c0,0-0.4,0-1,0c-1,0-2.5,0-2.9,0c0,0.7,0,12.7,0,12.7h-2.9c0,0,0-6,0-6.7h-5.5
		c0,0.6,0,2.1,0,2.1l-0.1,0.4l-0.5,0.3l-0.5,0.1c-0.3,0-0.7-0.1-1.2-0.4c-0.7-0.4-1.3-0.7-1.8-1.1l-1.6-1.2
		c-0.3-0.4-0.5-0.6-0.6-0.9l0-0.2l0.2-0.4l0.4-0.3l0.5-0.2l0.4-0.1c0,0,1.4,0,2,0c0-0.6,0-3.3,0-3.3c0-0.1,0-0.3-0.3-0.5
		c-0.3-0.2-0.6-0.3-1.1-0.3l-0.7,0.1c0,0-0.5,0.2-0.6,0.2l-0.3,0.3l-0.1,0.4l0,0.2l0.2,0.4l0.1,0.1l0.7,0.8l-3,0l-0.3-0.4l0-0.1
		l0-0.1l-0.2-0.4l-0.1-0.4c-0.1-0.6,0.1-1.5,1.3-2.2c0.9-0.5,1.9-0.7,3.1-0.7c2,0,3.3,0.5,3.9,1.6c0.2,0.4,0.3,0.8,0.3,1.2
		c0,0,0,2.6,0,3.2h5.5v-4.1c-0.7,0-3.9,0-3.9,0v-1.9h47.9l-0.3-0.4l-0.3-0.6l-0.1-0.7c-0.1-0.4,0.1-0.9,0.4-1.5
		c0.8-1.6,2.5-2.5,4.8-2.5c1,0,2.1,0.3,3.1,0.8c1.3,0.6,2.4,1.4,3.3,2.2l1.2,1.2c0,0,1.1,1.3,1.3,1.5c0.3,0,2.5,0,3.5,0
		c0.3,0,0.5,0,0.5,0H172.6z M145.2,303.4c-0.3-0.4-1-1.1-2.9-2.5c-1.2-0.9-2.3-1.4-3.1-1.4c-0.8,0-1.3,0.2-1.7,0.5
		c-0.3,0.3-0.5,0.6-0.6,0.9l0,0.4l0.1,0.5l0.4,0.7l0.5,0.6l0.2,0.2h4.9C143.7,303.4,144.7,303.4,145.2,303.4z M166.8,305.3
		c-0.6,0-4.5,0-5.8,0c0.1,0.1,0.3,0.3,0.3,0.3l0.7,1.1l0.2,0.9v0c0,1.4-0.9,2.4-2.6,3.1l-1,0.3c0,0-0.4,0.1-0.8,0.1l0.1,0.2l0.1,0.2
		c0.9,1.2,2.2,1.7,4.1,1.7c1,0,2-0.2,2.8-0.6c0.5-0.2,0.9-0.4,1.2-0.6c0,0,0.6-0.5,0.8-0.7C166.8,311.1,166.8,306,166.8,305.3"/>
	<path id="XMLID_101_" class="st1" d="M336.4,303.4h-29c0,0-0.2,0-0.5,0c-1,0-3.3,0-3.5,0c-0.2-0.2-1.3-1.5-1.3-1.5l-1.2-1.2
		c-0.9-0.9-2-1.6-3.3-2.2c-1.1-0.5-2.1-0.8-3.1-0.8c-2.3,0-4,0.8-4.8,2.5c-0.3,0.6-0.5,1.1-0.4,1.5l0.1,0.7l0.3,0.6l0.3,0.4h-11v1.9
		c0,0,12,0,12.8,0c0,0.7,0,5.9,0,6.1l-0.1,0.1c-0.6-0.3-4.4-2-5.5-2.5c0.2-0.1,0.6-0.2,0.6-0.2l0.9-0.2l0.8,0l1,0.1
		c0.4,0.1,0.5,0.2,0.5,0.2l0.9,0.7l-0.6-2.5l-0.6-0.1l-0.2,0l-1.1-0.1l-0.9-0.1c-0.7,0-1.4,0.1-2.3,0.3c-0.7,0.2-1.4,0.5-2,0.9
		c-1.2,0.8-1.9,1.8-1.9,3c0,0.7,0.2,1.2,0.5,1.7c0.3,0.5,0.8,0.9,1.6,1.4c1.3,0.8,2.8,1.1,4.4,1.1h1.1l1.3-0.3l1-0.4
		c0,0,0.2-0.1,0.4-0.2c0,1,0,3.7,0,3.7h2.9c0,0,0-11.9,0-12.7c0.6,0,2.6,0,2.9,0h0c0.3,0,2.9,0,3.5,0c0,0.7,0,12.7,0,12.7h2.9
		c0,0,0-11.9,0-12.7c0.5,0,2.1,0,2.9,0c0.3,0,0.5,0,0.5,0c1.2,0,4.1,0,4.6,0c0,0.6,0,3.4,0,4c-0.5,0-1.3,0-1.3,0l-0.5,0.1l-0.2,0.1
		l-0.6,0.3l-0.1,0.1l0,0.1l-0.1,0.4l0,0.1c0,0.3,0.2,0.6,0.5,0.9l2.1,1.7c0.7,0.5,1.3,0.8,1.8,0.8l0.6-0.1l0.4-0.2l0.3-0.4l0.1-0.1
		l0,0c0,0,0-1.3,0-1.7c0.7,0,5.7,0,6.4,0c0,0.7,0,6.7,0,6.7h2.9c0,0,0-11.9,0-12.7c0.3,0,1.2,0,1.9,0c0.6,0,1.1,0,1.1,0
		c1,0,2.4,0,2.8,0c0,0.7,0,12.7,0,12.7h2.9c0,0,0-11.9,0-12.7c0.7,0,3.9,0,3.9,0v-1.9H336.4z M297.7,303.4h-4.4l-0.2-0.2l-0.5-0.6
		l-0.4-0.7l-0.1-0.5l0-0.4c0.1-0.3,0.3-0.7,0.6-0.9c0.4-0.4,0.9-0.5,1.7-0.5c0.8,0,1.9,0.5,3.1,1.4c1.9,1.4,2.6,2.2,2.9,2.5
		C299.8,303.4,298.1,303.4,297.7,303.4z M321.3,305.3c0,0.6,0,3.4,0,4c-0.7,0-5.7,0-6.4,0c0-0.6,0-3.4,0-4
		C315.5,305.3,320.6,305.3,321.3,305.3z M284.6,310.3L284.6,310.3c0.6,0.2,4.5,2.1,5.5,2.6l-0.2,0.1l-1,0.3l-0.4,0.1H288
		c-0.4,0-0.9-0.1-1.4-0.2c-0.5-0.1-0.9-0.3-1.2-0.6c-0.7-0.4-1-0.9-1-1.4l0-0.2l0-0.3L284.6,310.3"/>
	<path id="XMLID_106_" class="st1" d="M423.2,303.4h-46.9l-1-0.7l-1.2-0.8l-2.9-1.6c-0.8-0.5-1.8-0.9-2.8-1.3c-2.6-1-4.9-1.6-7-1.6
		c-0.9,0-1.8,0.1-2.6,0.3c-1.2,0.3-2.2,0.8-3,1.6c-0.7,0.7-1.1,1.4-1.1,2.2l0,0.3v0.4l0.2,0.8c0,0,0.1,0.2,0.2,0.4
		c-0.9,0-3.4,0-3.4,0v1.9c0,0,2.9,0,3.5,0c0,0.7,0,12.6,0,12.6h2.9c0,0,0-11.9,0-12.6c0.6,0,3.4,0,3.4,0v0c2.4,0,13.7,0,14.4,0
		c0,0.5,0,2.3,0,2.8c-0.8,0-10.6,0-10.6,0l-0.5,0l-0.4,0.1c-0.8,0.3-1,0.8-1,1.2v0l0,0c0.1,0.3,0.3,0.6,0.6,0.9
		c0.4,0.5,0.9,0.9,1.3,1.2l1.5,1.1c0.6,0.3,0.9,0.4,1.1,0.4l0.6-0.1l0.4-0.2l0.3-0.4l0-0.4c0,0,0-1.4,0-1.9c0.7,0,6,0,6.7,0
		c0,0.7,0,7.9,0,7.9h2.9c0,0,0-11.9,0-12.7c0.4,0,1.9,0,2.7,0c0.4,0,0.6,0,0.6,0c1.5,0,5.3,0,5.9,0c0,0.6,0,2.9,0,3.5
		c-0.5,0-1.9,0-1.9,0l-0.5,0l-0.5,0l-0.4,0.3l0,0l-0.2,0.5c0,0.3,0.2,0.7,0.5,1.1c0.7,0.8,1.8,1.6,3,2.2c0.6,0.2,1.1,0.4,1.4,0.4
		l0.7-0.1l0.1,0c0.2-0.1,0.4-0.4,0.5-0.6l0-0.1c0,0,0-6.5,0-7.3c0.7,0,4.8,0,5.5,0c0,0.7,0,12.7,0,12.7h2.9c0,0,0-11.9,0-12.7
		c0.5,0,2.8,0,3.9,0c0.3,0,0.6,0,0.6,0c1.2,0,4,0,4.5,0c0,0.6,0,3.4,0,4c-0.5,0-1.3,0-1.3,0l-0.5,0.1l-0.2,0.1l-0.6,0.3l-0.1,0.1
		l0,0.1l-0.1,0.4l0,0.1c0,0.3,0.2,0.6,0.5,0.9l2.1,1.7c0.7,0.5,1.3,0.8,1.8,0.8l0.6-0.1l0.4-0.2l0.3-0.4l0.1-0.1l0,0
		c0,0,0-1.3,0-1.7c0.7,0,5.7,0,6.4,0c0,0.7,0,6.7,0,6.7h2.9c0,0,0-11.9,0-12.7c0.6,0,3,0,3,0v-1.9H423.2z M361.2,303.4L361.2,303.4
		c-0.9,0-2.9,0-3.2,0l-0.1-0.1l-0.2-0.5l-0.2-0.5l0-0.5l0-0.1c0-0.3,0.1-0.6,0.3-1c0.4-0.7,1.1-1.1,2-1.3c0.4-0.1,0.9-0.2,1.5-0.2
		c0.7,0,1.6,0.1,2.5,0.3c1.1,0.3,2.1,0.6,2.9,0.9l2.4,1.1l0.9,0.4l1.4,0.8l0.8,0.5H361.2z M417.7,305.3c0,0.6,0,3.4,0,4
		c-0.7,0-5.7,0-6.4,0c0-0.6,0-3.4,0-4C412,305.3,417,305.3,417.7,305.3"/>
</g>
</svg>
